<?xml version="1.0" encoding="UTF-8"?>
<svg id="Capa_1" data-name="Capa 1" xmlns="http://www.w3.org/2000/svg" viewBox="0 0 2500 2500">
  <defs>
    <style>
      .cls-1 {
        fill: #013a52;
      }
    </style>
  </defs>
  <!-- Upper wordmark: uP TOWN WORKS (unchanged from AssistantsBlue.svg) -->
  <g>
    <polygon class="cls-1" points="1678.75 1273.07 1626.93 1121.87 1604.92 1121.87 1582.92 1121.87 1531.1 1273.07 1489.22 1121.87 1423.2 1121.87 1494.19 1358.96 1557.36 1358.96 1604.92 1224.8 1652.48 1358.96 1715.66 1358.96 1786.65 1121.87 1720.63 1121.87 1678.75 1273.07"/>
    <polygon class="cls-1" points="1986.82 1121.87 1986.82 1266.68 1871.83 1121.87 1810.07 1121.87 1810.07 1358.96 1871.83 1358.96 1871.83 1214.15 1988.95 1358.96 2050 1358.96 2050 1121.87 1986.82 1121.87"/>
    <polygon class="cls-1" points="1022.85 1121.87 972.69 1121.87 972.69 1174.87 1022.85 1174.87 1022.85 1358.96 1085.32 1358.96 1085.32 1174.87 1135.48 1174.87 1135.48 1121.87 1085.32 1121.87 1022.85 1121.87"/>
    <path class="cls-1" d="m813.14,1114.62h-58.61v-.89l-42.09-34.97-42.39,35.22v.64h0v253.48h0v17.84c0,46.85-12.77,83.05-67.79,83.05s-68.5-34.78-68.5-73.82v-222.71l-41.88-35.14-41.88,35.14v222.71c0,90.86,51.12,154.75,152.27,154.75s152.27-62.47,152.27-154.75v-27.06h57.37c80.61,0,130.51-65.77,130.51-126.73s-49.44-126.76-129.27-126.76Zm-5.61,182.81h-53v-112.13h54.19c38.09,0,54.19,35.48,54.19,56.08s-16.1,56.05-55.38,56.05Z"/>
    <path class="cls-1" d="m1282.66,1114.29c-72.04,0-130.61,57.14-130.61,127.36s58.58,127.36,130.61,127.36,130.61-57.12,130.61-127.36-58.6-127.36-130.61-127.36Zm0,192.5c-37.05,0-67.09-29.17-67.09-65.14s30.04-65.11,67.09-65.11,67.08,29.15,67.08,65.11-30.03,65.14-67.08,65.14Z"/>
    <path class="cls-1" d="m533.76,1159.28v-98.94h136.3v40.45l42.39-35.22,42.09,34.97v-125.62h-19.17v-24.84h-29.1v24.84h-36.2v32.17h0c-10.53,21.18-39.07,37.88-52.8,37.88-6.17,0-8.54.06-11.29.12-3.44.08-7.34.17-20.07.17-24.99,0-41.56-9.06-52.14-18.72v-7.62h-7.16c-10.14-12.55-13.27-25.07-13.3-25.21l-2.26-.04c-.05.2-3.88,13.65-11.7,25.24h-5.41v6.86c-1.97,2.1-4.1,3.99-6.42,5.54v-57.83h-37.51v185.77l41.88-35.14,41.88,35.14Zm-46.25-112.44h1.07v8.84h-1.07v-8.84Zm1.85,0h4.57v8.84h-4.57v-8.84Zm44.4.61v-.61h7.17v8.84h-7.17v-8.22Zm41.3,8.22h-4.91v-8.84h4.91v8.84Zm.78-8.84h4.91v8.84h-4.91v-8.84Zm-6.47,8.84h-4.91v-8.84h4.91v8.84Zm-5.69,0h-4.91v-8.84h4.91v8.84Zm-5.69,0h-4.91v-8.84h4.91v8.84Zm-5.69,0h-4.91v-8.84h4.91v8.84Zm-5.69,0h-4.91v-8.84h4.91v8.84Zm51.2,0h-4.91v-8.84h4.91v8.84Zm.78-8.84h4.91v8.84h-4.91v-8.84Zm-6.47,8.84h-4.91v-8.84h4.91v8.84Zm17.84,0v-8.84h4.91v8.84h-4.91Zm56.11-8.84v8.84h-4.91v-8.84h4.91Zm-5.69,8.84h-4.91v-8.84h4.91v8.84Zm-5.69,0h-4.91v-8.84h4.91v8.84Zm-5.69,0h-4.91v-8.84h4.91v8.84Zm-5.69,0h-4.91v-8.84h4.91v8.84Zm-5.69,0h-4.91v-8.84h4.91v8.84Zm-5.69,0h-4.91v-8.84h4.91v8.84Zm-5.69,0h-4.91v-8.84h4.91v8.84Zm40.6,0v-8.84h3.2v8.84h-3.2Zm3.2-43.28v33.67h-44.51c14.35-3.85,34.46-16.29,44.51-33.67Zm-49.49,34.44v8.84h-4.91v-8.84h4.91Zm-11.38,0v8.84h-4.91v-8.84h4.91Zm-22.75,0v8.84h-4.91v-8.84h4.91Zm-17.92-.78h-34.76v-16.38c8.15,7.01,19.44,13.5,34.76,16.38Zm-55.08-27.12v-17.64c1.9,4.63,5.11,11.03,10.19,17.64h-10.19Zm-2.33-18.09v18.09h-8.91c4.17-6.47,7.11-13.27,8.91-18.09Zm-17.17,28.3v16.91h-6.42v-11.96c2.3-1.38,4.44-3.06,6.42-4.95Zm-6.42,31.19h6.42v13.53h-6.42v-13.53Z"/>
  </g>
  <!-- Lower wordmark: TRACKER -->
  <!-- T1 (from ASSISTANTS T) -> left edge at x=866 (kerned +16 toward A) -->
  <g transform="translate(-404.59 0)">
    <path class="cls-1" d="m1312.21,1429.25h-41.62v-15.09h100.42v15.09h-41.62v106.31h-17.17v-106.31Z"/>
  </g>
  <!-- R1 (from NETWORKING R) -> left edge at x=1041.32 (kerned +16 toward A) -->
  <g transform="translate(-439.39 0.24)">
    <path class="cls-1" d="m1561.76,1535.17l-26.15-37.24c-2.42.17-5.02.35-7.62.35h-29.96v36.89h-17.32v-121.24h47.28c31.52,0,50.57,15.93,50.57,42.26,0,18.7-9.7,32.21-26.67,38.28l28.75,40.7h-18.88Zm-.52-78.98c0-17.32-11.6-27.19-33.77-27.19h-29.44v54.56h29.44c22.17,0,33.77-10.05,33.77-27.36Z"/>
  </g>
  <!-- A (from ASSISTANTS A) -> left edge at x=1208.15 (kerned +8 toward C) -->
  <g transform="translate(440.51 0)">
    <path class="cls-1" d="m863.37,1505.22h-64.52l-13.35,30.35h-17.86l54.98-121.4h17.17l55.15,121.4h-18.21l-13.35-30.35Zm-6.07-13.87l-26.19-59.49-26.19,59.49h52.38Z"/>
  </g>
  <!-- C (constructed to match typeface metrics; outer 128.86x124, inner 94.56x93.18, ±30 deg right opening) -->
  <path class="cls-1" d="M1522.58,1443.87 A64.43,62 0 1 0 1522.58,1505.87 L1507.72,1498.17 A47.28,46.59 0 1 1 1507.72,1451.57 Z"/>
  <!-- K (from NETWORKING K) -> left edge at x=1606.11 -->
  <g transform="translate(-0.50 0.23)">
    <path class="cls-1" d="m1646.1,1481.31l-22.17,22.52v31.35h-17.32v-121.24h17.32v67.72l65.81-67.72h19.74l-51.79,54.56,55.08,66.68h-20.26l-46.42-53.86Z"/>
  </g>
  <!-- E (from NETWORKING E) -> left edge at x=1787.17 -->
  <g transform="translate(859.49 0.24)">
    <path class="cls-1" d="m1015.66,1520.1v15.07h-87.98v-121.24h85.56v15.07h-68.24v37.24h60.79v14.72h-60.79v39.14h70.66Z"/>
  </g>
  <!-- R2 (from NETWORKING R) -> left edge at x=1950.05, right edge x=2049.98 ~ 2050 -->
  <g transform="translate(469.34 0.24)">
    <path class="cls-1" d="m1561.76,1535.17l-26.15-37.24c-2.42.17-5.02.35-7.62.35h-29.96v36.89h-17.32v-121.24h47.28c31.52,0,50.57,15.93,50.57,42.26,0,18.7-9.7,32.21-26.67,38.28l28.75,40.7h-18.88Zm-.52-78.98c0-17.32-11.6-27.19-33.77-27.19h-29.44v54.56h29.44c22.17,0,33.77-10.05,33.77-27.36Z"/>
  </g>
</svg>
